<svg width="62" height="181" viewBox="0 0 62 181" fill="none" xmlns="http://www.w3.org/2000/svg">
<path d="M54.7 177.3C54.7 175.4 56.1999 173.9 58.0999 173.9C59.9999 173.9 61.5 175.4 61.5 177.3C61.5 179.2 59.9999 180.7 58.0999 180.7C56.1999 180.6 54.7 179.1 54.7 177.3Z" fill="white"/>
<path d="M36.5 177.3C36.5 175.4 38 173.9 39.9 173.9C41.8 173.9 43.3 175.4 43.3 177.3C43.3 179.2 41.8 180.7 39.9 180.7C38 180.6 36.5 179.1 36.5 177.3Z" fill="white"/>
<path d="M18.2 177.3C18.2 175.4 19.7 173.9 21.6 173.9C23.5 173.9 25 175.4 25 177.3C25 179.2 23.5 180.7 21.6 180.7C19.7 180.6 18.2 179.1 18.2 177.3Z" fill="white"/>
<path d="M0 177.3C0 175.4 1.5 173.9 3.4 173.9C5.3 173.9 6.8 175.4 6.8 177.3C6.8 179.2 5.3 180.7 3.4 180.7C1.5 180.6 0 179.1 0 177.3Z" fill="white"/>
<path d="M54.7 157.9C54.7 156 56.1999 154.5 58.0999 154.5C59.9999 154.5 61.5 156 61.5 157.9C61.5 159.8 59.9999 161.3 58.0999 161.3C56.1999 161.3 54.7 159.8 54.7 157.9Z" fill="white"/>
<path d="M36.5 157.9C36.5 156 38 154.5 39.9 154.5C41.8 154.5 43.3 156 43.3 157.9C43.3 159.8 41.8 161.3 39.9 161.3C38 161.3 36.5 159.8 36.5 157.9Z" fill="white"/>
<path d="M18.2 157.9C18.2 156 19.7 154.5 21.6 154.5C23.5 154.5 25 156 25 157.9C25 159.8 23.5 161.3 21.6 161.3C19.7 161.3 18.2 159.8 18.2 157.9Z" fill="white"/>
<path d="M0 157.9C0 156 1.5 154.5 3.4 154.5C5.3 154.5 6.8 156 6.8 157.9C6.8 159.8 5.3 161.3 3.4 161.3C1.5 161.3 0 159.8 0 157.9Z" fill="white"/>
<path d="M54.7 138.6C54.7 136.7 56.1999 135.2 58.0999 135.2C59.9999 135.2 61.5 136.7 61.5 138.6C61.5 140.5 59.9999 142 58.0999 142C56.1999 142 54.7 140.5 54.7 138.6Z" fill="white"/>
<path d="M36.5 138.6C36.5 136.7 38 135.2 39.9 135.2C41.8 135.2 43.3 136.7 43.3 138.6C43.3 140.5 41.8 142 39.9 142C38 142 36.5 140.5 36.5 138.6Z" fill="white"/>
<path d="M18.2 138.6C18.2 136.7 19.7 135.2 21.6 135.2C23.5 135.2 25 136.7 25 138.6C25 140.5 23.5 142 21.6 142C19.7 142 18.2 140.5 18.2 138.6Z" fill="white"/>
<path d="M0 138.6C0 136.7 1.5 135.2 3.4 135.2C5.3 135.2 6.8 136.7 6.8 138.6C6.8 140.5 5.3 142 3.4 142C1.5 142 0 140.5 0 138.6Z" fill="white"/>
<path d="M54.7 119.3C54.7 117.4 56.1999 115.9 58.0999 115.9C59.9999 115.9 61.5 117.4 61.5 119.3C61.5 121.2 59.9999 122.7 58.0999 122.7C56.1999 122.7 54.7 121.2 54.7 119.3Z" fill="white"/>
<path d="M36.5 119.3C36.5 117.4 38 115.9 39.9 115.9C41.8 115.9 43.3 117.4 43.3 119.3C43.3 121.2 41.8 122.7 39.9 122.7C38 122.7 36.5 121.2 36.5 119.3Z" fill="white"/>
<path d="M18.2 119.3C18.2 117.4 19.7 115.9 21.6 115.9C23.5 115.9 25 117.4 25 119.3C25 121.2 23.5 122.7 21.6 122.7C19.7 122.7 18.2 121.2 18.2 119.3Z" fill="white"/>
<path d="M0 119.3C0 117.4 1.5 115.9 3.4 115.9C5.3 115.9 6.8 117.4 6.8 119.3C6.8 121.2 5.3 122.7 3.4 122.7C1.5 122.7 0 121.2 0 119.3Z" fill="white"/>
<path d="M54.7 100C54.7 98.1 56.1999 96.6 58.0999 96.6C59.9999 96.6 61.5 98.1 61.5 100C61.5 101.9 59.9999 103.4 58.0999 103.4C56.1999 103.4 54.7 101.9 54.7 100Z" fill="white"/>
<path d="M36.5 100C36.5 98.1 38 96.6 39.9 96.6C41.8 96.6 43.3 98.1 43.3 100C43.3 101.9 41.8 103.4 39.9 103.4C38 103.4 36.5 101.9 36.5 100Z" fill="white"/>
<path d="M18.2 100C18.2 98.1 19.7 96.6 21.6 96.6C23.5 96.6 25 98.1 25 100C25 101.9 23.5 103.4 21.6 103.4C19.7 103.4 18.2 101.9 18.2 100Z" fill="white"/>
<path d="M0 100C0 98.1 1.5 96.6 3.4 96.6C5.3 96.6 6.8 98.1 6.8 100C6.8 101.9 5.3 103.4 3.4 103.4C1.5 103.4 0 101.9 0 100Z" fill="white"/>
<path d="M54.7 80.7C54.7 78.8 56.1999 77.3 58.0999 77.3C59.9999 77.3 61.5 78.8 61.5 80.7C61.5 82.6 59.9999 84.1 58.0999 84.1C56.1999 84 54.7 82.5 54.7 80.7Z" fill="white"/>
<path d="M36.5 80.7C36.5 78.8 38 77.3 39.9 77.3C41.8 77.3 43.3 78.8 43.3 80.7C43.3 82.6 41.8 84.1 39.9 84.1C38 84 36.5 82.5 36.5 80.7Z" fill="white"/>
<path d="M18.2 80.7C18.2 78.8 19.7 77.3 21.6 77.3C23.5 77.3 25 78.8 25 80.7C25 82.6 23.5 84.1 21.6 84.1C19.7 84 18.2 82.5 18.2 80.7Z" fill="white"/>
<path d="M0 80.7C0 78.8 1.5 77.3 3.4 77.3C5.3 77.3 6.8 78.8 6.8 80.7C6.8 82.6 5.3 84.1 3.4 84.1C1.5 84 0 82.5 0 80.7Z" fill="white"/>
<path d="M54.7 61.3C54.7 59.4 56.1999 57.9 58.0999 57.9C59.9999 57.9 61.5 59.4 61.5 61.3C61.5 63.2 59.9999 64.7 58.0999 64.7C56.1999 64.7 54.7 63.2 54.7 61.3Z" fill="white"/>
<path d="M36.5 61.3C36.5 59.4 38 57.9 39.9 57.9C41.8 57.9 43.3 59.4 43.3 61.3C43.3 63.2 41.8 64.7 39.9 64.7C38 64.7 36.5 63.2 36.5 61.3Z" fill="white"/>
<path d="M18.2 61.3C18.2 59.4 19.7 57.9 21.6 57.9C23.5 57.9 25 59.4 25 61.3C25 63.2 23.5 64.7 21.6 64.7C19.7 64.7 18.2 63.2 18.2 61.3Z" fill="white"/>
<path d="M0 61.3C0 59.5 1.5 58 3.4 58C5.3 58 6.8 59.5 6.8 61.4C6.8 63.3 5.3 64.8 3.4 64.8C1.5 64.7 0 63.2 0 61.3Z" fill="white"/>
<path d="M54.7 42C54.7 40.1 56.1999 38.6 58.0999 38.6C59.9999 38.6 61.5 40.1 61.5 42C61.5 43.9 59.9999 45.4 58.0999 45.4C56.1999 45.4 54.7 43.9 54.7 42Z" fill="white"/>
<path d="M36.5 42C36.5 40.1 38 38.6 39.9 38.6C41.8 38.6 43.3 40.1 43.3 42C43.3 43.9 41.8 45.4 39.9 45.4C38 45.4 36.5 43.9 36.5 42Z" fill="white"/>
<path d="M18.2 42C18.2 40.1 19.7 38.6 21.6 38.6C23.5 38.6 25 40.1 25 42C25 43.9 23.5 45.4 21.6 45.4C19.7 45.4 18.2 43.9 18.2 42Z" fill="white"/>
<path d="M0 42C0 40.1 1.5 38.6 3.4 38.6C5.3 38.6 6.8 40.1 6.8 42C6.8 43.9 5.3 45.4 3.4 45.4C1.5 45.4 0 43.9 0 42Z" fill="white"/>
<path d="M54.7 22.7001C54.7 20.8001 56.1999 19.3 58.0999 19.3C59.9999 19.3 61.5 20.8001 61.5 22.7001C61.5 24.6001 59.9999 26.1 58.0999 26.1C56.1999 26.1 54.7 24.6001 54.7 22.7001Z" fill="white"/>
<path d="M36.5 22.7001C36.5 20.8001 38 19.3 39.9 19.3C41.8 19.3 43.3 20.8001 43.3 22.7001C43.3 24.6001 41.8 26.1 39.9 26.1C38 26.1 36.5 24.6001 36.5 22.7001Z" fill="white"/>
<path d="M18.2 22.7001C18.2 20.8001 19.7 19.3 21.6 19.3C23.5 19.3 25 20.8001 25 22.7001C25 24.6001 23.5 26.1 21.6 26.1C19.7 26.1 18.2 24.6001 18.2 22.7001Z" fill="white"/>
<path d="M0 22.7001C0 20.8001 1.5 19.3 3.4 19.3C5.3 19.3 6.8 20.8001 6.8 22.7001C6.8 24.6001 5.3 26.1 3.4 26.1C1.5 26.1 0 24.6001 0 22.7001Z" fill="white"/>
<path d="M54.7 3.4C54.7 1.5 56.1999 0 58.0999 0C59.9999 0 61.5 1.5 61.5 3.4C61.5 5.3 59.9999 6.8 58.0999 6.8C56.1999 6.8 54.7 5.2 54.7 3.4Z" fill="white"/>
<path d="M36.5 3.4C36.5 1.5 38 0 39.8 0C41.7 0 43.2 1.5 43.2 3.4C43.2 5.3 41.7 6.8 39.8 6.8C38 6.8 36.5 5.2 36.5 3.4Z" fill="white"/>
<path d="M18.2 3.4C18.2 1.5 19.7 0 21.6 0C23.5 0 25 1.5 25 3.4C25 5.3 23.5 6.8 21.6 6.8C19.7 6.8 18.2 5.2 18.2 3.4Z" fill="white"/>
<path d="M0 3.4C0 1.5 1.5 0 3.4 0C5.3 0 6.8 1.5 6.8 3.4C6.8 5.3 5.3 6.8 3.4 6.8C1.5 6.8 0 5.2 0 3.4Z" fill="white"/>
</svg>
