<svg width="25" height="123" viewBox="0 0 25 123" fill="none" xmlns="http://www.w3.org/2000/svg">
<g clip-path="url(#clip0)">
<path d="M18.2 119.3C18.2 117.4 19.7 115.9 21.6 115.9C23.5 115.9 25 117.4 25 119.3C25 121.2 23.5 122.7 21.6 122.7C19.7 122.7 18.2 121.2 18.2 119.3Z" fill="white"/>
<path d="M0 119.3C0 117.4 1.5 115.9 3.4 115.9C5.3 115.9 6.8 117.4 6.8 119.3C6.8 121.2 5.3 122.7 3.4 122.7C1.5 122.7 0 121.2 0 119.3Z" fill="white"/>
<path d="M18.2 100C18.2 98.1 19.7 96.6 21.6 96.6C23.5 96.6 25 98.1 25 100C25 101.9 23.5 103.4 21.6 103.4C19.7 103.4 18.2 101.9 18.2 100Z" fill="white"/>
<path d="M0 100C0 98.1 1.5 96.6 3.4 96.6C5.3 96.6 6.8 98.1 6.8 100C6.8 101.9 5.3 103.4 3.4 103.4C1.5 103.4 0 101.9 0 100Z" fill="white"/>
<path d="M18.2 80.7C18.2 78.8 19.7 77.3 21.6 77.3C23.5 77.3 25 78.8 25 80.7C25 82.6 23.5 84.1 21.6 84.1C19.7 84 18.2 82.5 18.2 80.7Z" fill="white"/>
<path d="M0 80.7C0 78.8 1.5 77.3 3.4 77.3C5.3 77.3 6.8 78.8 6.8 80.7C6.8 82.6 5.3 84.1 3.4 84.1C1.5 84 0 82.5 0 80.7Z" fill="white"/>
<path d="M18.2 61.3C18.2 59.4 19.7 57.9 21.6 57.9C23.5 57.9 25 59.4 25 61.3C25 63.2 23.5 64.7 21.6 64.7C19.7 64.7 18.2 63.2 18.2 61.3Z" fill="white"/>
<path d="M0 61.3C0 59.5 1.5 58 3.4 58C5.3 58 6.8 59.5 6.8 61.4C6.8 63.3 5.3 64.8 3.4 64.8C1.5 64.7 0 63.2 0 61.3Z" fill="white"/>
<path d="M18.2 42C18.2 40.1 19.7 38.6 21.6 38.6C23.5 38.6 25 40.1 25 42C25 43.9 23.5 45.4 21.6 45.4C19.7 45.4 18.2 43.9 18.2 42Z" fill="white"/>
<path d="M0 42C0 40.1 1.5 38.6 3.4 38.6C5.3 38.6 6.8 40.1 6.8 42C6.8 43.9 5.3 45.4 3.4 45.4C1.5 45.4 0 43.9 0 42Z" fill="white"/>
<path d="M18.2 22.7001C18.2 20.8001 19.7 19.3 21.6 19.3C23.5 19.3 25 20.8001 25 22.7001C25 24.6001 23.5 26.1 21.6 26.1C19.7 26.1 18.2 24.6001 18.2 22.7001Z" fill="white"/>
<path d="M0 22.7001C0 20.8001 1.5 19.3 3.4 19.3C5.3 19.3 6.8 20.8001 6.8 22.7001C6.8 24.6001 5.3 26.1 3.4 26.1C1.5 26.1 0 24.6001 0 22.7001Z" fill="white"/>
<path d="M18.2 3.4C18.2 1.5 19.7 0 21.6 0C23.5 0 25 1.5 25 3.4C25 5.3 23.5 6.8 21.6 6.8C19.7 6.8 18.2 5.2 18.2 3.4Z" fill="white"/>
<path d="M0 3.4C0 1.5 1.5 0 3.4 0C5.3 0 6.8 1.5 6.8 3.4C6.8 5.3 5.3 6.8 3.4 6.8C1.5 6.8 0 5.2 0 3.4Z" fill="white"/>
</g>
<defs>
<clipPath id="clip0">
<rect width="25" height="122.7" fill="white"/>
</clipPath>
</defs>
</svg>
